<svg xmlns="http://www.w3.org/2000/svg" viewBox="0 0 150 150">
  <style type="text/css">
    .bg-0 {fill:#FFD64A;}
    .bg-1 {fill:#FFFFFF;}
    .bg-2 {fill:url(#SVGID_BG_);}
    .ch-0 {fill:#4CD5C3;}
    .ch-1 {fill:#28B0A4;}
    .ch-2 {fill:#249A93;}
    .ch-3 {fill:#FCD757;}
    .ch-4 {fill:url(#SVGID_CH1_);}
    .ch-5 {fill:#41CDBB;}
    .ch-6 {fill:url(#SVGID_CH2_);}
    .ch-7 {fill:#44CEBC;}
    .ch-8 {fill:#FFEF76;}
    .ch-9 {fill:#E1EA89;}
  </style>
  <linearGradient id="SVGID_BG_" x1="23.2" x2="126.5" y1="76.9" y2="76.9" gradientTransform="matrix(1 0 0 -1 0 152)" gradientUnits="userSpaceOnUse">
    <stop stop-color="#67E4D1" offset="0"/>
    <stop stop-color="#51D4C5" offset="1"/>
  </linearGradient>
  <path class="bg-0" d="m74.8 1c-39.9 0-72.2 33.3-72.1 73.6 0.1 40.1 31.3 74.4 72 74.4 40.4 0 72.7-32.7 72.7-74.4 0-37.7-32.2-73.6-72.6-73.6z"/>
  <circle class="bg-1" cx="74.8" cy="74.1" r="55.5"/>
  <path class="bg-2" d="m74.8 21.8c-26.6 0-51.6 22.6-51.6 52.2 0 28.1 21.9 52.2 51.8 52.2 27.7 0 51.5-21.4 51.5-52.1 0-26.1-22.7-52.3-51.7-52.3z"/>
  <g transform="translate(33, 32) scale(0.65)">
    <linearGradient id="SVGID_CH1_" x1="1.27" x2="36.74" y1="64.92" y2="55.84" gradientUnits="userSpaceOnUse">
      <stop stop-color="#33C0B1" offset=".362"/>
      <stop stop-color="#2DAEA5" offset="1"/>
    </linearGradient>
    <linearGradient id="SVGID_CH2_" x1="82.91" x2="98.32" y1="96.1" y2="96.1" gradientUnits="userSpaceOnUse">
      <stop stop-color="#249A93" offset="0"/>
      <stop stop-color="#249B94" offset="1"/>
    </linearGradient>
    <path class="ch-0" d="m116.2 38.7 10.4 4.3-10.4 2-5.2-0.7 1.6-7.3 3.6 1.7z"/>
    <path class="ch-1" d="m116.2 45.1 9.8-1.9c0.8-0.2 2.5-0.2 2.7 0.8l-0.2 14.6c0 2.3-1.9 4.7-4.1 5l-9.4 1.5-0.5-19.8 1.7-0.2z"/>
    <path class="ch-1" d="m109.4 9.6-18.7-6.3c-1.5-0.5-3.2-0.7-5.1-0.5l-51.3 7.4c-1.9 0.3-3.8 1.5-5.7 2.9l20.7 8.8 39.2-0.5 20.9-11.8z"/>
    <path class="ch-0" d="m28.6 12.9c-2.2 2.2-3.9 5.6-4.3 9.2v28.8l24.5 7.7 0.5-37.2-20.7-8.5z"/>
    <path class="ch-1" d="m50.2 20.9c-2.1 2.3-4.7 6.3-4.7 10.1v56.9c0 6.3 3.8 11.9 9.6 11.5l-23.2-8.5c-4-1.6-7.6-5.4-7.6-12.5v-56.1c0.2-3.4 1.9-7.2 4.3-9.4l20.2 8.3 1.4-0.3z"/>
    <path class="ch-4" d="m24.3 49.4-19.4 3.4c-2.1 0.3-3.7 3.1-3.7 5.8v11.1c0 1.7 0.9 3.8 2.6 4.6l10.1 3.9c0.5 0.2 0.7 0.2 1.4 0l19-3.1 2.4-21.6-12.4-4.1z"/>
    <path class="ch-5" d="m17 57.8 18.5-3.4c2.4-0.4 4.1 0.7 4.1 3.2v12.8c0 2.4-1.5 4.7-3.9 5.2l-19.4 3c-1.7 0-3.1-1.1-3.1-3v-12.3c0-2.4 1.6-5 3.8-5.5z"/>
    <path class="ch-7" d="m105.6 9.4-50.3 7.4c-5.3 0.9-9.8 7.5-9.8 13.1v58c0 6.5 3.8 11.9 10.1 11.5l50.7-8.7c4.8-0.9 9.9-5.7 9.9-12.3v-59.2c0-6.1-4.3-10.4-10.6-9.8z"/>
    <path class="ch-0" d="m94.3 102.6-4.3 0.9-16.1-7.2 9.1-1.3 7.2 1.5 4.1 6.1z"/>
    <path class="ch-1" d="m98.3 94.6 10.9 5.2-14.9 2.8-5.3-2.8 1-0.7 8.3-4.5z"/>
    <path class="ch-1" d="m73.9 96.3v13.5l15.6 8 19.7-3.9v-14.1l-19.7 3.7-15.6-7.2z"/>
    <path class="ch-3" d="m73.9 109.8v4.5l15.6 7.5 19.7-3.9v-4l-19.7 3.9-15.6-8z"/>
    <path class="ch-6" d="m83 96.5 6.5 3.3 8.8-1.8v-5.8l-15.3 2.6v1.7z"/>
    <path class="ch-0" d="m89.5 103.5v14.3l19.7-3.9v-14.1l-19.7 3.7z"/>
    <path class="ch-0" d="m29.1 101.1 16-2.9 4.9 9.7-4.9 1.1-16-7.6v-0.3z"/>
    <path class="ch-1" d="m45.1 104.9 4.9 3 14.4-2.8-10.5-5.2-8.8 1.9v3.1z"/>
    <path class="ch-2" d="m38.4 93.5v8.3l6.7 3.1 8.8-1.6v-3.9l-15.5-5.9z"/>
    <path class="ch-1" d="m29.1 101.3v14.3l16 7.5 19.3-3.8v-14.2l-19.3 3.9-16-7.7z"/>
    <path class="ch-3" d="m29.1 115.6v3.8l16 8.1 19.3-4.1v-4.1l-19.3 3.8-16-7.5z"/>
    <path class="ch-7" d="m45.1 109v14.1l19.3-3.8v-14.2l-19.3 3.9z"/>
    <path class="ch-8" d="m61.1 39.5 8-1.1c1.4-0.2 2.1 0.7 2.1 2.3v26.6c0 1.5-1.2 3.1-2.9 3.4l-7.5 1.4c-1.6 0.2-3.1-0.7-3.1-3.1v-24.5c0-2.6 1.9-4.5 3.4-5z"/>
    <path class="ch-9" d="m68.8 38.4-0.2 28c0 1.4-0.7 2.4-2.4 2.7l-7.5 1.3c0.5 1.3 1.4 1.9 3.3 1.5l6.3-1c1.5-0.2 2.9-1.7 2.9-3.4v-26.6c0-1.6-0.9-2.7-2.4-2.5z"/>
    <path class="ch-8" d="m96.7 33.4 7.5-1.1c1.4-0.2 2.6 0.9 2.6 2.5v26.1c0 1.9-1.2 3.5-2.9 3.8l-7 1.4c-1.7 0-3.6-1-3.6-3.5v-25.4c0-1.9 1.4-3.5 3.4-3.8z"/>
    <path class="ch-9" d="m104.2 32.3v27.2c0 1.5-0.7 2.4-2.2 2.7l-8.2 1.9c0.5 1.3 1.9 2.3 3.1 2l7-1.4c1.7-0.3 2.9-1.5 2.9-3.8v-26.1c0-1.6-1.2-2.7-2.6-2.5z"/>
  </g>
  <g transform="translate(-5.7, -6.4) scale(1.4)" fill="#FFFFFF">
    <path d="m25.9 91c1.5-1.3 3.7-1.2 4.9 0.2 1.3 1.4 1.4 3.7-0.1 5.1-1.3 1.3-3.6 1.5-5.1 0.1-1.4-1.5-1.8-4 0.3-5.4zm1.3 3.7c0.5 0.5 1.3 0.6 1.8 0.1s0.5-1.4 0-1.8c-0.4-0.5-1.3-0.6-1.8-0.1-0.6 0.5-0.6 1.4 0 1.8z"/>
    <path d="m29.3 101.2 3.6-6.9c0.4-0.7 0.7-0.9 1.5-0.5 0.5 0.2 0.8 0.4 0.6 1.1l0.1 0.2c1.2-0.6 2.8 0.3 3.1 2.2 0.4 2.3-2 4.5-4.1 4-0.7-0.2-1.3-0.7-1.6-1.4l-1.3 2.6c-0.3 0.6-0.7 0.7-1.4 0.3-0.9-0.4-1.1-0.7-0.5-1.6zm6.2-2.3c0.5-0.3 0.6-1 0.3-1.6-0.3-0.5-1.1-0.7-1.7-0.3s-0.7 1.2-0.2 1.7c0.4 0.6 1 0.5 1.6 0.2z"/>
    <path d="m40.5 104.2c-2-0.8-2.9-3.1-1.9-5 0.8-1.7 2.9-2.3 4.7-1.5 2.2 0.9 2.5 3.1 1.6 4.4-0.5 0.6-1.3 0.4-1.8 0.3l-2.5-0.9c-0.1 0.7 1.2 1.4 2.4 1.3 0.6-0.1 1.2 0.8 0.9 1.6-0.4 1-2.4 0.2-3.4-0.2zm2.5-3.5c0.4-0.4 0.3-1-0.4-1.1-0.5-0.2-1.2 0-1.7 0.7l2.1 0.4z"/>
    <path d="m45.5 104.6 0.8-4.6c0.2-0.8 0.4-0.9 1.3-0.8 0.7 0.1 0.9 0.4 0.9 1h0.1c0.5-0.6 1.8-1 3 0 1.4 1.3 1.2 2.6 0.8 5.1-0.2 1.3-0.3 1.6-1.4 1.3-0.9-0.2-1-0.5-0.9-1.2l0.3-2.1c0.2-0.9-0.3-1.4-0.9-1.5-0.6 0-1.2 0.3-1.3 1l-0.4 2.2c-0.1 0.8-0.5 1.1-1.4 0.9-0.8-0.1-1-0.4-0.9-1.3z"/>
    <path d="m53.7 105.9 0.1-7.8c0-1.1 0.4-1.2 1.3-1.2 0.8 0 1 0.4 1 1v3h0.1c0.2-0.4 1.2-1.2 2.6-0.5 2 1 2.6 3.7 0.8 5.7-1.1 1.1-3 1.3-3.7 0.2l-0.1 0.1c0 0.5-0.3 0.6-1.1 0.6s-1-0.1-1-1.1zm4.5-2.1c0.3-0.5 0.1-1.2-0.5-1.4-0.4-0.3-1.1 0-1.4 0.5s-0.1 1.3 0.4 1.5c0.6 0.3 1.2 0.2 1.5-0.6z"/>
    <path d="m61.4 102.7-0.4-1.6c-0.1-0.7 0.2-1.1 1-1.2s1.2 0 1.3 1.1l0.3 2c0.2 0.8 0.7 1.2 1.4 1.1 0.6-0.1 1.1-0.6 1-1.4l-0.4-2.4c-0.1-0.7 0.5-1.1 1-1.1 0.8-0.1 1.1 0.1 1.2 1l0.8 4.6c0.1 0.7 0 1.2-1 1.3-0.8 0.1-1-0.2-1.1-0.7v-0.1h-0.1c-0.3 0.8-1.1 1.2-1.7 1.2-1.8 0-3-1.4-3.3-3.8z"/>
    <path d="m69.4 102.5c-0.8-2.3 0.7-4.8 2.7-4.7l0.7 0.3-0.9-2.7c-0.3-0.8 0.3-1.1 0.8-1.3 0.8-0.2 1.1-0.2 1.3 0.5l2.6 7.8c0.3 0.9 0.1 1.1-0.7 1.4-0.5 0.2-0.9 0.1-1.2-0.4l-0.1 0.1c-0.4 1.1-2.1 1.8-3.9 0.6-0.6-0.4-1.1-0.9-1.3-1.6zm4.1-0.9c0.2-0.5 0.2-1.1-0.3-1.4-0.4-0.4-1.1-0.4-1.5 0.1-0.3 0.3-0.3 1.1 0 1.5 0.5 0.7 1.5 0.7 1.8-0.2z"/>
    <path d="m76.8 99.4c-0.9-2 0.6-5.1 2.8-4.5l-1.4-2.4c-0.3-0.7 0-1.1 0.7-1.4 0.7-0.4 1-0.2 1.4 0.5l3.8 7c0.4 0.8 0.4 1.1-0.5 1.7-0.5 0.2-0.9 0.2-1.3-0.3h-0.1c-0.1 1.4-2.1 2.5-4.2 1.1-0.5-0.4-1-0.9-1.2-1.7zm3.9-0.3c0.5-0.2 0.7-1 0.3-1.6-0.3-0.5-1.1-0.8-1.7-0.4-0.4 0.3-0.7 1-0.3 1.5 0.3 0.6 1.1 0.8 1.7 0.5z"/>
    <path d="m88 96.5c-1.5-0.5-4.5-1.9-5.5-2.5-0.3-0.2-0.4-0.6 0-1.1 0.7-0.8 0.8-0.9 1.5-0.5l3 1.4-0.6-2.9c-0.1-0.8 0.1-1.1 0.8-1.3 0.8-0.1 1.2 0.1 1.3 1l1.6 8.3c0.1 0.8 0 0.9-0.8 1.3-0.8 0.2-1.1 0-1.2-0.6l-0.5-3.1h0.4z"/>
  </g>
</svg>
